# xmcd
# 
# Track frame offsets:
#     150
#     13201
#     23646
#     33885
#     45180
#     57823
#     71350
#     82782
#     93125
#     105117
#     119278
#     133496
#     146175
#     159914
#     168829
# 
# Disc length: 2399
# 
# Revision: 0
# Processed by: cddbd v1.5.2PL0 Copyright (c) Steve Scherf et al.
# Submitted via: fre:ac v1.0.17
# 
DISCID=ab095d0f
DTITLE=Ray Charles - Blues Is My Middle Name
DYEAR=0
DGENRE=Blues
TTITLE0=Baby Won't You Please Come Home
TTITLE1=I Wonder Who's Kissing Her Now
TTITLE2=Sittin' On Top Of The World
TTITLE3=Confession Blues
TTITLE4=The Snow Is Falling
TTITLE5=Baby, Let Me Hold Your Hand
TTITLE6=What Have I Done?
TTITLE7=Hey Now
TTITLE8=I'm Glad For Your Sake
TTITLE9=Someday (Blues Is My Middle Name)
TTITLE10=Kissa Me Baby
TTITLE11=Lonely Boy
TTITLE12=Misery In My Heart
TTITLE13=All To Myself
TTITLE14=She's On The Ball
EXTD=
EXTT0=
EXTT1=
EXTT2=
EXTT3=
EXTT4=
EXTT5=
EXTT6=
EXTT7=
EXTT8=
EXTT9=
EXTT10=
EXTT11=
EXTT12=
EXTT13=
EXTT14=
PLAYORDER=
